<svg xmlns="http://www.w3.org/2000/svg" width="16" height="16" viewBox="0 0 16 16">
    <path fill="#444" fill-rule="evenodd" d="M3.577 10.786a5.245 5.245 0 0 1-.65-1.61H1V6.84h1.948a5.226 5.226 0 0 1 .667-1.57l-1.499-1.5L3.77 2.117l1.515 1.516c.474-.294 1-.507 1.556-.64V1h2.337v1.993a5.297 5.297 0 0 1 1.557.637l1.514-1.514A15417082.95 15417082.95 0 0 0 13.9 3.768l-1.498 1.498a5.28 5.28 0 0 1 .664 1.572h1.95v2.336h-1.915a5.189 5.189 0 0 1-.654 1.618l1.453 1.453-1.653 1.652-1.448-1.447c-.49.314-1.039.54-1.622.679v1.886H6.84v-1.878a5.207 5.207 0 0 1-1.627-.681L3.77 13.899l-1.653-1.653 1.46-1.46zm2.089-3.844V9.2l1.166 1.24h2.37l1.13-1.203V6.868L9.129 5.666H6.832L5.666 6.942z"/>
</svg>
